<?xml version="1.0" encoding="utf-8"?>
<!-- Uploaded to: SVG Repo, www.svgrepo.com, Generator: SVG Repo Mixer Tools -->
<svg fill="#000000" width="800px" height="800px" viewBox="-6.5 0 32 32" version="1.1" xmlns="http://www.w3.org/2000/svg">
<title>album</title>
<path d="M2.531 4.781h13.563c1.406 0 2.531 1.156 2.531 2.531v14.844c0 1.344-1.094 2.469-2.438 2.531v-1.688c0.406-0.063 0.75-0.438 0.75-0.844v-14.844c0-0.438-0.406-0.813-0.844-0.813h-13.563c-0.438 0-0.844 0.375-0.844 0.813 0.156-0.031 0.375-0.063 0.563-0.063 0.156 0 0.281 0 0.438 0.031l10.156 1.531c1.375 0.25 2.375 1.5 2.375 2.875v13.219c0 1.313-0.938 2.281-2.219 2.281-0.125 0-0.313 0-0.469-0.031l-10.125-1.531c-1.344-0.25-2.406-1.5-2.406-2.844v-15.469c0-1.375 1.156-2.531 2.531-2.531zM3.031 12.75l8.906 1.313 0.219-1.531-8.906-1.313zM4.906 14.094l-0.125 0.938 4.938 0.75 0.125-0.938z"></path>
</svg>