<svg width="125" height="17" viewBox="0 0 125 17" fill="none" xmlns="http://www.w3.org/2000/svg">
<path d="M6.35324 0.619275C7.17672 0.619275 7.93731 0.817872 8.63601 1.21409C9.33473 1.6103 9.88271 2.1474 10.28 2.82537C10.6772 3.50333 10.8759 4.24489 10.8759 5.052C10.8759 6.27684 10.4347 7.32266 9.55232 8.18749C8.66995 9.05231 7.60293 9.48472 6.35324 9.48472H2.66906V15.7547H0V0.619275H6.35324ZM6.35324 6.86774C6.86829 6.86774 7.30548 6.69165 7.66581 6.33848C8.02614 5.98531 8.20581 5.55681 8.20581 5.052C8.20581 4.5472 8.02515 4.11869 7.66581 3.76553C7.30548 3.41235 6.86829 3.23626 6.35324 3.23626H2.66906V6.86872H6.35324V6.86774Z" fill="#262626"/>
<path d="M21.6628 0.619275H24.332V15.7547H21.6628V9.50625H15.1989V15.7547H12.5299V0.619275H15.1989V6.86774H21.6628V0.619275Z" fill="#262626"/>
<path d="M29.8368 1.63574C31.0206 0.958748 32.3112 0.619275 33.7086 0.619275C35.1061 0.619275 36.3966 0.95777 37.5804 1.63574C38.7642 2.31371 39.7016 3.23234 40.3932 4.39262C41.0839 5.5529 41.4303 6.81785 41.4303 8.18749C41.4303 9.55712 41.0849 10.8221 40.3932 11.9824C39.7016 13.1426 38.7642 14.0623 37.5804 14.7392C36.3966 15.4172 35.1061 15.7557 33.7086 15.7557C32.3112 15.7557 31.0206 15.4172 29.8368 14.7392C28.653 14.0623 27.7147 13.1426 27.024 11.9824C26.3322 10.8221 25.987 9.55712 25.987 8.18749C25.987 6.81785 26.3322 5.5529 27.024 4.39262C27.7147 3.23234 28.653 2.31371 29.8368 1.63574ZM30.1342 11.6898C31.1195 12.6554 32.3102 13.1388 33.7076 13.1388C35.1051 13.1388 36.2958 12.6564 37.2809 11.6898C38.2662 10.7242 38.7593 9.55712 38.7593 8.18749C38.7593 6.81785 38.2662 5.65073 37.2809 4.68514C36.2958 3.71955 35.1041 3.23626 33.7076 3.23626C32.3112 3.23626 31.1195 3.71955 30.1342 4.68514C29.1491 5.65073 28.656 6.81883 28.656 8.18749C28.656 9.55614 29.1481 10.7242 30.1342 11.6898Z" fill="#262626"/>
<path d="M41.9813 0.619275H52.8572V3.23528H48.7538V15.7547H46.0847V3.23528H41.9813V0.619275Z" fill="#262626"/>
<path d="M57.2581 1.63574C58.4418 0.958748 59.7324 0.619275 61.1299 0.619275C62.5273 0.619275 63.8179 0.95777 65.0017 1.63574C66.1855 2.31371 67.1228 3.23234 67.8146 4.39262C68.5052 5.5529 68.8515 6.81785 68.8515 8.18749C68.8515 9.55712 68.5062 10.8221 67.8146 11.9824C67.1228 13.1426 66.1855 14.0623 65.0017 14.7392C63.8179 15.4172 62.5273 15.7557 61.1299 15.7557C59.7324 15.7557 58.4418 15.4172 57.2581 14.7392C56.0742 14.0623 55.1359 13.1426 54.4453 11.9824C53.7536 10.8221 53.4082 9.55712 53.4082 8.18749C53.4082 6.81785 53.7536 5.5529 54.4453 4.39262C55.1359 3.23234 56.0742 2.31371 57.2581 1.63574ZM57.5554 11.6898C58.5407 12.6554 59.7314 13.1388 61.1289 13.1388C62.5263 13.1388 63.7171 12.6564 64.7023 11.6898C65.6874 10.7242 66.1805 9.55712 66.1805 8.18749C66.1805 6.81785 65.6874 5.65073 64.7023 4.68514C63.7171 3.71955 62.5253 3.23626 61.1289 3.23626C59.7324 3.23626 58.5407 3.71955 57.5554 4.68514C56.5703 5.65073 56.0772 6.81883 56.0772 8.18749C56.0772 9.55614 56.5693 10.7242 57.5554 11.6898Z" fill="#262626"/>
<path d="M74.6309 0.282725C76.0223 0.16337 77.3389 0.390339 78.5785 0.964608C79.8183 1.53887 80.8334 2.37435 81.6259 3.47104C82.4174 4.56773 82.8746 5.79844 82.9964 7.1622C83.1181 8.52695 82.8867 9.81636 82.3007 11.0304C81.7148 12.2455 80.8623 13.2414 79.7434 14.0172C78.6245 14.7941 77.3688 15.2411 75.9774 15.3604L71.3839 15.7547L70.0384 0.676984L74.6319 0.282725H74.6309ZM75.7438 12.7542C77.1353 12.6349 78.2752 12.0528 79.1645 11.007C80.0528 9.96116 80.4402 8.75588 80.3253 7.39114C80.2105 6.02639 79.6197 4.90524 78.5527 4.02673C77.4845 3.14918 76.2549 2.76959 74.8634 2.88894L72.93 3.05526L73.8104 12.9206L75.7438 12.7542Z" fill="#3300CC"/>
<path d="M95.9165 5.34451C95.8406 6.19173 95.5441 6.94796 95.0281 7.61224C94.511 8.27748 93.8623 8.76371 93.0817 9.07285L94.9652 16.0061L92.1305 15.7635L90.3788 9.34091L87.3463 9.08068L86.7904 15.3057L84.1313 15.0777L85.4758 0L91.805 0.542962C93.0497 0.649598 94.0739 1.17202 94.8764 2.10826C95.6789 3.04548 96.0252 4.12455 95.9165 5.34451ZM91.2501 6.76795C91.7631 6.81198 92.2142 6.67403 92.6046 6.35217C92.9949 6.03128 93.2125 5.62333 93.2564 5.12733C93.3002 4.63231 93.1595 4.18913 92.8321 3.79975C92.5048 3.41039 92.0855 3.19321 91.5725 3.14919L87.9023 2.83416L87.5789 6.45294L91.2491 6.76795H91.2501Z" fill="#3300CC"/>
<path d="M100.724 12.3903L98.1134 14.6756L110.561 15.3771L108.225 12.813L100.724 12.3903Z" fill="#3300CC"/>
<path d="M100.267 4.0815L97.9367 1.5242L97.2211 13.7247L99.8362 11.4355L100.267 4.0815Z" fill="#3300CC"/>
<path d="M108.742 3.63933L111.351 1.35497L98.9109 0.653523L101.247 3.21669L108.742 3.63933Z" fill="#3300CC"/>
<path d="M109.628 4.59514L109.197 11.9403L111.528 14.4986L112.243 2.3049L109.628 4.59514Z" fill="#3300CC"/>
<path d="M119.883 0.180022C120.7 0.0743644 121.48 0.174153 122.226 0.477429C122.971 0.781683 123.586 1.24344 124.069 1.86467C124.553 2.48591 124.849 3.19615 124.957 3.99641C125.12 5.21147 124.822 6.30327 124.062 7.27376C123.303 8.24424 122.303 8.8097 121.064 8.96917L117.412 9.44072L118.247 15.6579L115.601 15.9993L113.586 0.993977L119.885 0.181L119.883 0.180022ZM120.716 6.37566C121.226 6.31011 121.636 6.07923 121.946 5.68302C122.257 5.28681 122.378 4.83873 122.311 4.33882C122.244 3.8389 122.007 3.43682 121.603 3.13256C121.199 2.82831 120.741 2.70994 120.231 2.77548L116.579 3.24703L117.063 6.84819L120.716 6.37664V6.37566Z" fill="#3300CC"/>
</svg>
